<svg id="Layer_1" data-name="Layer 1" xmlns="http://www.w3.org/2000/svg" viewBox="0 0 1017.03 967.4"><defs><style>.cls-1{fill:#333;}.cls-2{fill:#f2f2f2;}.cls-3{fill:#1f1f1f;opacity:0.7;}.cls-4{fill:#603813;}.cls-5{fill:#a67c52;}.cls-6{fill:#541902;stroke:#8c6239;stroke-miterlimit:10;opacity:0.5;}.cls-7{fill:#525252;}</style></defs><title>flag</title><path class="cls-1" d="M544.2,198.07C625,123.42,823.55,52.86,968.85,113.89c15.72,14.71,19.18,35.21,31.61,37.86s19-17.07,34.63-11.64,37,34.06,86.54,36.23,91.09-11.46,97.28-15.2,20.52-25.38,32.63-18.54,22.41,26.19,35.5,20.47,2.4-20.05,15.3-23.26,69.74-8.07,100.84-39.37C1432,76.54,1414.05,210,1334.93,251.92c-17.34,6.24-26.88-1.24-27.47,6.29s8.89,15.86,2,28-75.4,70-75.21,78.45,124,52.63,210.16,50.9c38.81-.36,32.11-.88-1,45.44S1295.2,622.27,1077.58,548C896,498.52,661.91,603.41,610.33,616.26c-.25-7.6-3.66-18-3.66-18C640,571.36,697,335.55,540.77,209.6,541.61,209.67,544.2,198.07,544.2,198.07Z" transform="translate(-453.97 -47.67)"/><path class="cls-2" d="M942.06,272c21.75-65.71-4.32-118-84.65-119.67-100.33-2.1-106,66.24-62.92,112.81,4.43,10.9-29.56,26.73-2.35,45.29s45.36-25.27,47.22-9.67-4.66,39.07,8.19,42.1,21.53-15.75,21.53-15.75c1.72,18,23.13,28,25.83,5.3,22.15,15.47,34.88,3,14.1-36.78C962.85,328.07,975.51,290.52,942.06,272ZM801.49,254.16c-14.93-20.2,23.37-56.61,41.83-20S821.7,283.69,801.49,254.16ZM889,298.1c-7.42,3.17-9.42-7-14.57-10.84s-7.48,15.66-16.32,7.13c-8.64-7,2.28-26.55,10.48-29.72S896.42,294.92,889,298.1Zm39.39-42.41c-3,14.07-11.13,24.27-34.74,9.59s-20.4-31-10-44.43C900.83,198.46,931.37,241.62,928.38,255.69Z" transform="translate(-453.97 -47.67)"/><path class="cls-2" d="M822.8,405.13c-12.44-.27-17.7,16.34-28.15,1.73s17.13-14.75,15-25-16.49-16.95-6.29-24.56,30.89,9.4,27.34,21.25c-5.59,18.57,139.4,79.32,141.39,61.16,1-9.6-1.63-13.58,4.32-14.74s28,9,23.35,18.09-13.69,5.29-15.8,14.41.71,31.35-10.56,29.69-8.59-18.25-20.13-26.23S826.72,404.8,822.8,405.13Z" transform="translate(-453.97 -47.67)"/><path class="cls-2" d="M944,399.44c21.37-13.51,32,11.21,38.54-4.71s-19.73-13.8-20.23-24.21,1.13-18.46-11.6-20.77c-11.52-2.08-13.86,13.85-6.13,24S915,395.83,893.12,413.63c-15.33,12.49-73.06,48-75.25,38.33s-9.32-7.81-15.45-8-16,8-9,16.25,13.57,1.1,18,9.72,1.25,27,11.88,23.65,3.07-15.14,12.33-24.7S928.55,414.89,944,399.44Z" transform="translate(-453.97 -47.67)"/><path class="cls-3" d="M1443.45,461c31.7-44.38,39.07-45.76,5.54-45.49,1.29,17.5-40.3,87.14-136.75,124.93-155.93,61.08-244.74-47.12-401.78-22.23S631.3,596,637.36,583c85.19-203.19-41.78-359.43-93.27-384.44-.47,2.08-2.57,11.14-3.32,11.08C697,335.55,640,571.36,606.67,598.27c0,0,3.41,10.38,3.66,18C661.91,603.41,896,498.52,1077.58,548,1295.2,622.27,1410.35,507.3,1443.45,461Z" transform="translate(-453.97 -47.67)"/><path class="cls-3" d="M1234.58,365.29a1.45,1.45,0,0,1-.28-.65c-.19-8.44,68.37-66.33,75.21-78.45s-2.62-20.43-2-28,10.13-.06,27.47-6.29c79.12-41.9,97.08-175.38,68.25-151.49-.56.56-1.18,1-1.75,1.59,2.18,32.17-6.2,94.44-62.48,129-21.62,19.5-39-27.37-52.57-48.66-6.29-9.92-19-26.87-28.54-35.17,10.16,27.73,23.64,73.86,43.92,99.06-7.43,4.52-8.26,9.58-5.31,19.8,5.31,18.39-29.6,48.27-55.92,68.71C1223.92,347.7,1222.77,358.21,1234.58,365.29Z" transform="translate(-453.97 -47.67)"/><path class="cls-3" d="M970.41,115.46c10.39,22.64,15.27,52.64,33.91,51.76,12.8-.6,15.09-16.73,20.84-27.29-9.17,3-15.26,13.83-24.69,11.82C988.46,149.19,984.79,130,970.41,115.46Z" transform="translate(-453.97 -47.67)"/><path class="cls-4" d="M521.75,53c-14.24-6-26.09-6.65-36.66-3.43-1.33,10.91-2.76,21.12-3.62,22.78-1.7,3.23-6.34-3.26-12.56-14.36A99.94,99.94,0,0,0,454.57,71.4c65.77,129.88,154.92,776.34,183.84,939.31,15.51,10.19,55.09-.22,60.27-23.42C632.69,795,520.2,224.87,521.75,53Z" transform="translate(-453.97 -47.67)"/><path class="cls-5" d="M508.19,48.78C513.78,138.9,613.71,809,684.25,985c-19,3.86-34.81,13.77-46.29,23.13.15.83.3,1.73.45,2.54,15.51,10.19,55.09-.22,60.27-23.42C632.69,795,520.2,224.87,521.75,53A70.06,70.06,0,0,0,508.19,48.78Z" transform="translate(-453.97 -47.67)"/><path class="cls-6" d="M638.41,1010.71c4.2,2.76,10.19,4,16.76,3.86-22.29-88.17-49.3-264.51-72.22-403.8C553.68,433,490.63,146.46,462.29,63.59c-2.6,2.4-5.18,5-7.73,7.81C520.34,201.27,609.49,847.74,638.41,1010.71Z" transform="translate(-453.97 -47.67)"/><path class="cls-1" d="M505.43,241.42c-24.84-16.68-23.39-75.16,35-59.38,19.89,11.66,12.68,46.51-1.23,37.56S501.75,216.41,505.43,241.42Z" transform="translate(-453.97 -47.67)"/><path class="cls-3" d="M540.38,182c-1.51-.4-3-.74-4.4-1,6.05,11.75,2.54,24.73-9.2,24.15-10.59-.51-27.28,7.49-34.51,17.93,2.45,7.51,7,14.21,13.15,18.35-3.68-25,19.81-30.78,33.73-21.83S560.27,193.7,540.38,182Z" transform="translate(-453.97 -47.67)"/><path class="cls-1" d="M578.4,642c-32.09-10.09-24.18-63,32.34-52.7,18,6.46,17.4,41.81-.81,42.93C597,625.34,579.71,625.26,578.4,642Z" transform="translate(-453.97 -47.67)"/><path class="cls-3" d="M610.74,589.32a81.47,81.47,0,0,0-9.71-1.18c5.18,11.33,3.75,25.44-3.56,25.44-7.19.29-24.47,11.17-30.69,9.84a22.05,22.05,0,0,1-6.95-3.64c.92,9.64,7.16,18.66,18.57,22.24,1.31-16.76,18.58-16.68,31.53-9.77C628.14,631.14,628.79,595.78,610.74,589.32Z" transform="translate(-453.97 -47.67)"/><path class="cls-7" d="M618.51,253.32c-7.28-23.94-31.22-45.8-21.86-57.26s90.56-65.58,168.64-76c0-15.62-170.72,25-201.95,77C562.31,204.4,591.45,217.92,618.51,253.32Z" transform="translate(-453.97 -47.67)"/><path class="cls-7" d="M1220.23,175.25c7.29,20.82,27.07,77,39.56,78.08s8.33-10.41-7.29-43.72S1215,133.61,1220.23,175.25Z" transform="translate(-453.97 -47.67)"/></svg>