<svg id="Layer_1" data-name="Layer 1" xmlns="http://www.w3.org/2000/svg" viewBox="0 0 677.65 991.75"><defs><style>.cls-1{fill:#ccc;}.cls-2{opacity:0.5;}.cls-3,.cls-5{fill:#1f1f1f;}.cls-3{opacity:0.3;}.cls-4{fill:#333;}.cls-5{opacity:0.7;}.cls-6{fill:#616161;}.cls-7{fill:#ff0;}.cls-8{fill:#f7931e;}</style></defs><title>bomb</title><path class="cls-1" d="M836.64,315.4c-56.18,9-108.4-23.73-77.26-101.74a150.55,150.55,0,0,1,14.19-22.45l.38-.47c2.31-1.07,4.5-2,6.32-2.72,3.15-1.18,5.48-2.13,5.68-3.56.18-1-1.46-2.27-4.4-3,3.78-4.48,7.3-8.58,10-12.07,4.55-5.85,6.9-9.95,5.92-10.9s-5.06,1.38-10.87,6a134.36,134.36,0,0,0-19,18.53,30.51,30.51,0,0,0-4,1.85c-.67.41-1.26.89-1.88,1.33a33.54,33.54,0,0,0-4.83-.64c2.13-1.89,4.38-3.93,6.7-6.16,6.51-6.22,11.87-13.23,14.16-19.29s1.44-10.44.21-10.5c-1.47-.17-3,3-6.32,7.12a155.85,155.85,0,0,1-13.22,13.94,47.21,47.21,0,0,0,8.8-13.94c2.57-5.91,1.72-12.24.53-16.66q-1.46-3.21-2.73-5.58a24.54,24.54,0,0,0-2.9-3.48c-1.74-1.78-2.92-2.5-3.47-2.11s-.46,1.86.15,4c.27,1.11.82,2.34,1.2,3.81s.54,3.15.95,4.9c0,3.56.15,7.53-2.14,11.61a46.21,46.21,0,0,1-6.12,9,36.76,36.76,0,0,0-1.95-5c-2.59-4.81-5.11-7.14-6.27-6.56-2.21,1.1.26,9.4.38,20-2.44,2.58-4.81,5.16-7,7.75,1.09-6.21,1.09-12.2-.41-16.73-2.07-6.4-5.75-8.84-6.68-8.08-1.23.83-.14,4.2-.21,9.23S729.15,175,726.65,183s-5,15.51-6.3,21.2a37.27,37.27,0,0,0-.95,6c-49.31,109.79,53.7,158,113.22,148.83,82.94-12.76,136.35,15.51,104,100.57,0,0,18.38,14.19,42.86-16.44C1012.41,321.63,918.59,302.29,836.64,315.4Z" transform="translate(-641.41 -65.3)"/><g class="cls-2"><path class="cls-3" d="M759.38,213.67a150.55,150.55,0,0,1,14.19-22.45l.38-.47c2.31-1.07,4.5-2,6.32-2.72,3.15-1.18,5.48-2.13,5.68-3.56.18-1-1.46-2.27-4.4-3,3.78-4.48,7.3-8.58,10-12.07,4.55-5.85,6.9-9.95,5.92-10.9s-5.06,1.38-10.87,6a134.36,134.36,0,0,0-19,18.53,30.51,30.51,0,0,0-4,1.85c-.67.41-1.26.89-1.88,1.33a34.75,34.75,0,0,0-3.52-.47c-29.75,43.71-40,113.84,10.72,129.85,32.87,10.37,71.82,4.22,103.39-3.6h0c-5.83.17-11.69.54-17.54,1.1l-.55.05c-5.88.57-11.75,1.32-17.57,2.26C780.46,324.4,728.24,291.68,759.38,213.67Z" transform="translate(-641.41 -65.3)"/><path class="cls-3" d="M936.62,459.64S955,473.84,979.48,443.2c5.93-21.92,7.69-40.47,6.19-56.16-1.92,15.33-7,26.49-16,24.15-20.86-5.43-13.57-70.88-102.7-66-41.62,2.27-76.43,5.28-104.13,2.36,23,10.9,49,14.71,69.77,11.52C915.56,346.31,969,374.58,936.62,459.64Z" transform="translate(-641.41 -65.3)"/></g><path class="cls-4" d="M918.71,570.4c-.19-40.89-9.18-82.39-10-96.6s62-57,86.91-36.31c2.9,40.2,25.68,94.86,33.88,104.26C1010.52,570.88,918.71,570.4,918.71,570.4Z" transform="translate(-641.41 -65.3)"/><path class="cls-5" d="M947.33,569.13a25.59,25.59,0,0,0-.64-4.23c-5.6-23.24-16.43-76.2-21.15-111.49-10.15,7.7-17.08,15.64-16.81,20.39.8,14.21,9.79,55.71,10,96.6C918.71,570.4,930.91,570.45,947.33,569.13Z" transform="translate(-641.41 -65.3)"/><path class="cls-5" d="M1029.52,541.75c-8.21-9.4-31-64.06-33.88-104.26-7.33-6.07-17.93-6.57-29.21-4,1.25,40.52,7.3,98.75,29,127.81C1010.58,557,1023.59,550.83,1029.52,541.75Z" transform="translate(-641.41 -65.3)"/><path class="cls-4" d="M1313.18,732.57c31.7,139.69-68.09,281.4-222.89,316.55s-306-49.62-337.72-189.3,68.1-281.4,222.91-316.54S1281.48,592.88,1313.18,732.57Z" transform="translate(-641.41 -65.3)"/><path class="cls-5" d="M975.47,543.28a317.63,317.63,0,0,0-64.85,22.3c108.76-31.19,236.41,17.18,253.19,146.59,23,177.79-298.87,281.77-403,175.61,44.32,122.77,185.31,194.05,329.48,161.33,154.8-35.15,254.6-176.86,222.89-316.55S1130.28,508.14,975.47,543.28Z" transform="translate(-641.41 -65.3)"/><path class="cls-6" d="M954.2,607c16.44,20.27,4.06,57.57-27.66,83.31s-70.79,30.16-87.23,9.87-4.07-57.58,27.66-83.31S937.75,586.76,954.2,607Z" transform="translate(-641.41 -65.3)"/><path class="cls-6" d="M835.07,721.46c13,6.39,15.35,28,5.36,48.29s-28.62,31.53-41.58,25.13-15.36-28-5.36-48.28S822.11,715.06,835.07,721.46Z" transform="translate(-641.41 -65.3)"/><polygon class="cls-7" points="120.96 64.06 72.68 94.38 124.45 70.54 111.78 126.11 131.53 72.63 161.86 120.89 138.01 69.12 193.59 81.79 140.11 62.06 188.37 31.71 136.6 55.57 149.27 0 129.52 53.48 99.21 5.22 123.05 56.99 67.48 44.32 120.96 64.06"/><polygon class="cls-8" points="118.15 64.06 69.88 94.38 121.65 70.54 108.98 126.11 128.73 72.63 159.05 120.89 135.2 69.12 190.78 81.79 137.31 62.06 185.56 31.71 133.79 55.57 146.46 0 126.71 53.48 96.4 5.22 120.24 56.99 64.67 44.32 118.15 64.06"/><polygon class="cls-7" points="37.42 54.33 24.13 62.68 38.38 56.12 34.89 71.41 40.33 56.69 48.68 69.97 42.11 55.73 57.41 59.21 42.69 53.78 55.98 45.43 41.73 51.99 45.21 36.7 39.78 51.42 31.43 38.13 37.99 52.38 22.7 48.9 37.42 54.33"/><polygon class="cls-8" points="38.57 54.33 25.29 62.68 39.53 56.12 36.05 71.41 41.48 56.69 49.83 69.97 43.27 55.73 58.57 59.21 43.84 53.78 57.13 45.43 42.88 51.99 46.37 36.7 40.93 51.42 32.59 38.13 39.15 52.38 23.85 48.9 38.57 54.33"/><polygon class="cls-7" points="200.49 115.41 183.38 126.16 201.73 117.71 197.24 137.41 204.24 118.45 215 135.56 206.54 117.21 226.25 121.7 207.28 114.7 224.4 103.94 206.04 112.4 210.53 92.7 203.53 111.66 192.78 94.55 201.23 112.9 181.53 108.41 200.49 115.41"/><polygon class="cls-8" points="201.98 115.41 184.86 126.16 203.22 117.71 198.73 137.41 205.73 118.45 216.48 135.56 208.02 117.21 227.73 121.7 208.77 114.7 225.88 103.94 207.53 112.4 212.02 92.7 205.02 111.66 194.27 94.55 202.72 112.9 183.02 108.41 201.98 115.41"/><polygon class="cls-7" points="212.79 57.3 201.03 64.68 213.64 58.88 210.56 72.41 215.37 59.39 222.75 71.14 216.94 58.53 230.48 61.62 217.45 56.81 229.21 49.42 216.6 55.23 219.68 41.7 214.87 54.72 207.49 42.97 213.3 55.58 199.76 52.49 212.79 57.3"/><polygon class="cls-8" points="213.81 57.3 202.05 64.68 214.66 58.88 211.58 72.41 216.39 59.39 223.77 71.14 217.96 58.53 231.5 61.62 218.47 56.81 230.23 49.42 217.62 55.23 220.71 41.7 215.9 54.72 208.51 42.97 214.32 55.58 200.79 52.49 213.81 57.3"/><polygon class="cls-7" points="32.53 126.66 3.17 145.11 34.66 130.61 26.95 164.41 38.97 131.88 57.41 161.24 42.9 129.75 76.71 137.45 44.18 125.45 73.54 106.99 42.05 121.5 49.75 87.7 37.74 120.23 19.3 90.87 33.8 122.36 0 114.66 32.53 126.66"/><polygon class="cls-8" points="35.08 126.66 5.72 145.11 37.21 130.61 29.5 164.41 41.52 131.88 59.96 161.24 45.45 129.75 79.26 137.45 46.73 125.45 76.09 106.99 44.6 121.5 52.3 87.7 40.29 120.23 21.85 90.87 36.35 122.36 2.55 114.66 35.08 126.66"/></svg>