<svg id="Layer_1" data-name="Layer 1" xmlns="http://www.w3.org/2000/svg" viewBox="0 0 1002.87 993.72"><defs><style>.cls-1{fill:#fbb03b;}.cls-2{fill:#ed861f;}.cls-3{fill:#de7812;}.cls-4{fill:#fcee21;}</style></defs><title>coin</title><path class="cls-1" d="M1120.28,232.76c90,176.43,19.86,392.34-156.54,482.29S571.4,734.92,481.44,558.49,461.57,166.16,638,76.2,1030.32,56.34,1120.28,232.76Z" transform="translate(-442.24 -37)"/><path class="cls-2" d="M930.9,650.68c-140.64,71.7-313.38,15.64-385.1-125s-15.63-313.39,125-385.1,313.38-15.64,385.1,125S1071.54,579,930.9,650.68Z" transform="translate(-442.24 -37)"/><path class="cls-3" d="M567.41,533.59c-71.72-140.65-15.63-313.39,125-385.11a285.33,285.33,0,0,1,216-17.78c-74.32-30.13-160.7-29.33-237.59,9.87-140.64,71.71-196.73,244.45-125,385.1,36.26,71.12,98.39,120.51,169.11,142.8C653.27,643.48,599.92,597.34,567.41,533.59Z" transform="translate(-442.24 -37)"/><path class="cls-4" d="M467.69,401.63C450,340.37,495.53,175.2,617.79,110.16,524.75,195.43,497.27,260.82,467.69,401.63Z" transform="translate(-442.24 -37)"/><path class="cls-4" d="M1131.24,340.39c27.09,57.7,9,218.41-101.56,301.84C1108.16,543.4,1124.1,484.07,1131.24,340.39Z" transform="translate(-442.24 -37)"/><path class="cls-3" d="M875.56,299.13C871.16,205,816.87,155.53,722,200.65,603.62,257,628.06,345,699.66,377.35c10.14,10.89-22.48,50.47,17.82,57.48s41.61-58,50.9-39.73,12.29,51.12,28.72,47.33,18-32.15,18-32.15c10.21,21.33,39.82,21.09,32.64-8.61,33,6.14,42.19-16.79-.21-53.84C925.39,356.36,923.15,302.42,875.56,299.13Zm-172.7,60.52c-26.65-16.24,1.63-83.86,39.87-49.41S739.95,384.35,702.86,359.65Zm122.44,3c-7.27,8.29-14.2-3.09-22-4.87s-1.64,23.8-15.87,18.42c-13.29-3.56-9.41-34.23-1.24-43S832.55,354.35,825.3,362.64ZM852.14,287c2.9,19.18-2,36.6-36.33,32.3s-38-26.38-32-49.14C793.85,232.28,849.25,267.79,852.14,287Z" transform="translate(-442.24 -37)"/><path class="cls-3" d="M770.26,519.19c-16.44,6.52-16.5,29.81-36.22,17.58s16.37-27.52,9.28-39S714.7,486,725,471s44.4-5.39,44.63,11.12c.32,25.89,215.62,21,210.73-2.45-2.59-12.37-7.74-15.8-.4-20.5s40.47-4.34,38.1,9.43-15.78,14-14.79,26.39,13.85,38.16-1.62,42.3-18.8-17.72-37.22-21.2S775.25,516.65,770.26,519.19Z" transform="translate(-442.24 -37)"/><path class="cls-3" d="M926.91,445.67c22.45-28.35,46.62-3.81,48.62-27S944,412.58,939,400.06s-6.12-23.32-23.79-19.15c-16,3.76-12.48,24.62,1.84,32.82s-29.63,43.38-51,77.3c-15,23.77-76.11,99.08-82.94,88.42s-15.44-4.47-23.59-1.4-17.63,18.63-5.16,24.94,18.27-6.1,27.6,2.07,12.76,32.49,25.34,22.56-2.2-20.3,6-37.15S913,473.13,926.91,445.67Z" transform="translate(-442.24 -37)"/><path class="cls-1" d="M862.35,294.84c-4.39-94.16-58.68-143.6-153.51-98.48-118.42,56.34-94,144.33-22.39,176.7C696.59,384,664,423.54,704.29,430.54s41.61-58,50.9-39.73,12.29,51.12,28.72,47.33S802,406,802,406c10.21,21.34,39.82,21.1,32.64-8.6,33,6.14,42.2-16.79-.2-53.84C912.19,352.07,909.95,298.13,862.35,294.84ZM689.66,355.36C663,339.11,691.29,271.5,729.53,306S726.75,380.06,689.66,355.36Zm122.44,3c-7.27,8.29-14.2-3.09-22-4.87s-1.64,23.8-15.87,18.43c-13.29-3.56-9.41-34.23-1.25-43S819.35,350.06,812.1,358.35Zm26.83-75.68c2.91,19.19-2,36.6-36.32,32.31s-38-26.38-32-49.14C780.65,228,836,263.5,838.93,282.67Z" transform="translate(-442.24 -37)"/><path class="cls-1" d="M757.06,514.9c-16.45,6.52-16.5,29.81-36.22,17.58s16.37-27.53,9.28-39-28.62-11.79-18.36-26.76,44.41-5.39,44.63,11.13c.33,25.89,215.62,21,210.73-2.45-2.59-12.37-7.74-15.8-.4-20.51s40.47-4.34,38.1,9.43S989,478.37,990,490.75s13.84,38.15-1.62,42.3-18.79-17.72-37.22-21.2S762.05,512.36,757.06,514.9Z" transform="translate(-442.24 -37)"/><path class="cls-1" d="M913.72,441.38c22.44-28.35,46.63-3.81,48.61-26.95s-31.56-6.14-36.52-18.66-6.12-23.32-23.79-19.15c-16,3.76-12.48,24.62,1.85,32.82s-29.63,43.38-51,77.3c-15,23.77-76.11,99.08-82.94,88.43s-15.45-4.48-23.59-1.4-17.63,18.63-5.16,24.94,18.27-6.1,27.6,2.07,12.76,32.49,25.34,22.56-2.2-20.3,6-37.15S899.83,468.84,913.72,441.38Z" transform="translate(-442.24 -37)"/><path class="cls-4" d="M643.88,307.42c8.8,3.77,47.8-60.18,27.48-62.21S627.87,294.92,643.88,307.42Z" transform="translate(-442.24 -37)"/><path class="cls-4" d="M688.29,235.2c9.41,10.35,37.73-15.12,28.37-20S681.06,223.74,688.29,235.2Z" transform="translate(-442.24 -37)"/><path class="cls-4" d="M720.85,469.19c-9.26,8.85,19.36,19,24.79,13.53S728,464.2,720.85,469.19Z" transform="translate(-442.24 -37)"/><path class="cls-1" d="M1445.11,672.17c0,198-160.51,358.56-358.53,358.56S728,870.2,728,672.17s160.51-358.54,358.54-358.54S1445.11,474.14,1445.11,672.17Z" transform="translate(-442.24 -37)"/><path class="cls-2" d="M1086.58,958.46c-157.87,0-286.29-128.41-286.29-286.29s128.42-286.29,286.29-286.29,286.29,128.42,286.29,286.29S1244.44,958.46,1086.58,958.46Z" transform="translate(-442.24 -37)"/><path class="cls-3" d="M815.94,689c0-157.88,128.43-286.3,286.29-286.3A285.3,285.3,0,0,1,1302.72,485c-52.52-60.59-129.84-99.13-216.14-99.13-157.87,0-286.29,128.42-286.29,286.29,0,79.83,32.91,152.06,85.79,204C842.51,825.94,815.94,760.59,815.94,689Z" transform="translate(-442.24 -37)"/><path class="cls-4" d="M787,526.18c12-62.63,127.66-189.07,266.12-191.49C931.54,368.4,877.35,414.17,787,526.18Z" transform="translate(-442.24 -37)"/><path class="cls-4" d="M1406,773c-2.08,63.71-91.21,198.65-227.59,222.76C1293.23,943.41,1334.37,897.8,1406,773Z" transform="translate(-442.24 -37)"/><path class="cls-3" d="M1197,620.13c38.86-85.88,12.94-154.59-92-157.46-131.09-3.6-149.29,85.89-100.21,147.25,4.08,14.31-42.95,34.76-10.23,59.3s63.4-32.73,63.4-12.27-12.27,51.12,4.09,55.21,30.68-20.46,30.68-20.46c-.6,23.65,25.89,36.89,33,7.17,26.59,20.44,45.22,4.21,24.27-48.06C1215.36,693.76,1237.86,644.68,1197,620.13Zm-181.34-24.53c-16.37-26.58,39.54-74,58-25.9S1037.44,634.45,1015.62,595.61Zm107.71,58.28c-10.24,4.08-11.25-9.2-17.38-14.32s-12.27,20.45-22.5,9.2c-10.23-9.2,7.16-34.76,18.41-38.84S1133.56,649.79,1123.33,653.88Zm58.29-55.22c-6.13,18.41-18.41,31.7-47,12.27s-21.83-40.74-6.14-58.29C1154.53,523.47,1187.76,580.26,1181.62,598.66Z" transform="translate(-442.24 -37)"/><path class="cls-3" d="M1003.19,768.35c-17.61-1.66-28.24,19.06-40.25-.79s27.09-17.09,26-30.5-20.14-23.5-4.21-32.17,42,15.37,34.71,30.17C1007.93,758.28,1202,851.7,1208.25,828.6c3.32-12.19.28-17.58,9-18.45s38,14.52,29.65,25.7-20.42,5.32-25.16,16.8-5,40.29-20.66,36.95-8.7-24.33-23.53-35.8S1008.79,768.36,1003.19,768.35Z" transform="translate(-442.24 -37)"/><path class="cls-3" d="M1176.15,774c32.88-15.07,43.27,17.77,55.56-1.93s-25.33-19.8-24.06-33.21,5.14-23.55-12.49-27.87c-15.93-3.89-22.3,16.28-13.27,30.08s-46.11,25.21-80.58,45.69c-24.15,14.37-112.81,53.7-114.06,41.11s-11.73-11-20.38-12-24.17,8.59-15.92,19.88,19,2.86,23.65,14.38-3.39,34.73,12.32,31.61,7.26-19.09,22.23-30.36S1151.31,792.17,1176.15,774Z" transform="translate(-442.24 -37)"/><path class="cls-1" d="M1187.15,610.32c38.86-85.88,12.94-154.59-92-157.46C964,449.26,945.83,538.74,994.91,600.11c4.08,14.31-42.95,34.76-10.23,59.31s63.4-32.73,63.4-12.27-12.27,51.12,4.09,55.21,30.68-20.46,30.68-20.46c-.6,23.65,25.89,36.88,33,7.16,26.59,20.46,45.22,4.21,24.27-48.05C1205.55,683.93,1228,634.86,1187.15,610.32Zm-181.34-24.53c-16.37-26.58,39.54-74,58-25.9S1027.63,624.63,1005.81,585.79Zm107.71,58.29c-10.23,4.08-11.25-9.21-17.38-14.33s-12.27,20.46-22.5,9.21c-10.23-9.21,7.16-34.77,18.41-38.85S1123.75,640,1113.52,644.07Zm58.29-55.23c-6.13,18.41-18.41,31.7-47,12.27s-21.83-40.74-6.14-58.29C1144.72,513.65,1177.95,570.44,1171.81,588.84Z" transform="translate(-442.24 -37)"/><path class="cls-1" d="M993.38,758.54c-17.61-1.67-28.24,19-40.25-.79s27.09-17.09,26-30.5-20.14-23.5-4.21-32.17,42,15.35,34.71,30.17c-11.47,23.22,182.56,116.63,188.85,93.54,3.32-12.19.28-17.58,9-18.46s38,14.53,29.65,25.71-20.42,5.32-25.16,16.79-5,40.29-20.66,36.95-8.7-24.33-23.53-35.8S999,758.54,993.38,758.54Z" transform="translate(-442.24 -37)"/><path class="cls-1" d="M1166.34,764.2c32.88-15.07,43.27,17.77,55.56-1.94s-25.33-19.79-24.06-33.2,5.14-23.56-12.49-27.87c-15.93-3.9-22.3,16.27-13.27,30.08S1126,756.46,1091.49,777c-24.15,14.37-112.81,53.7-114.06,41.11s-11.73-11-20.38-12-24.17,8.58-15.92,19.88,19,2.85,23.65,14.37-3.39,34.74,12.33,31.61,7.26-19.07,22.22-30.35S1141.5,782.35,1166.34,764.2Z" transform="translate(-442.24 -37)"/><path class="cls-4" d="M986.8,522.28c6.13,7.36,69.92-31.9,52.74-42.93S978.21,503.88,986.8,522.28Z" transform="translate(-442.24 -37)"/><path class="cls-4" d="M1059.16,478.11c3.68,13.49,40.48,3.67,34.35-4.91S1057.94,464.62,1059.16,478.11Z" transform="translate(-442.24 -37)"/><path class="cls-4" d="M981.88,701.37c-12.27,3.68,8.59,25.75,15.95,23.32S990.48,700.14,981.88,701.37Z" transform="translate(-442.24 -37)"/></svg>