<svg id="Layer_1" data-name="Layer 1" xmlns="http://www.w3.org/2000/svg" viewBox="0 0 757.19 1008.27"><defs><style>.cls-1{fill:#80744c;}.cls-2,.cls-9{fill:#948758;}.cls-3{fill:#c22e1e;}.cls-19,.cls-21,.cls-4,.cls-9{opacity:0.5;}.cls-5{fill:#911b0e;}.cls-6{fill:#29abe2;}.cls-7{fill:#fbb03b;}.cls-8{fill:#d7ceaf;}.cls-10{fill:#611209;}.cls-11{fill:#f5edd3;}.cls-12{fill:#1494c9;}.cls-13{fill:#fb622b;}.cls-14{fill:#e6594a;}.cls-15{fill:#6cc8f0;}.cls-16{fill:#fbc269;}.cls-17{fill:#333;}.cls-18,.cls-19{fill:#1f1f1f;}.cls-18{opacity:0.7;}.cls-20{fill:#fac452;}.cls-21{fill:#7d1015;}.cls-22{fill:#f2f2f2;}.cls-23{fill:#0a0808;}.cls-24{fill:#616161;}</style></defs><title>sparrow</title><path class="cls-1" d="M884.18,815.28c-3.23,39.79-13.81,93.34-4.31,86.78s87.36,7.68,73.41,27.93c-6,10.34-38-8.12-48.7-10.24,41.18,18.19,46.59,38.38,33.64,42.62S922,955.08,922,955.08c4.77,14.39-15.28,7.69-23.36-4.18s-28.86-27.26-45.84-28.71c2.57-29.12,9.53-107.75,9.53-107.75" transform="translate(-484.1 -29.61)"/><path class="cls-2" d="M852.14,811.09c-6.75,39.34-25.81,108.32-15.77,102.63S923.67,935.1,908,954c-6.9,9.76-38.09-17.43-48.57-20.49,39.4,21.79,43,42.37,29.72,45.44s-15.47-8.7-15.47-8.7c3.46,14.76-15.9,6.31-22.89-6.24s-26.31-29.72-43.1-32.68c5.14-28.78,23.53-115.89,23.53-115.89" transform="translate(-484.1 -29.61)"/><path class="cls-3" d="M819.46,820.51C771.5,870.28,733.78,957,686,996.64c-38.89,32.25-93.74,40.42-65.79,1.87-113,76.8-134.89,23.19-83.53-9.25-64.16,25.06-79.17,8.06,9.49-40.93,93.61-79.15,154.4-120.57,154.4-120.57Z" transform="translate(-484.1 -29.61)"/><g class="cls-4"><path class="cls-5" d="M496.45,980.42c-4.27,11.06,20.88,9.94,58.45-10.5-14.9,0-23.06-5.54-18.43-16.12,3.1-1.79,6.3-3.6,9.7-5.48,93.61-79.15,154.4-120.57,154.4-120.57l118.89-7.25c-17,17.63-32.71,39.93-48,63.11l-1.75,2.21c-46.5,44.57-103.07,30-85.13,2.41-21.47,35.83-56.62,60.53-83.62,78.54-22.75,15.17-68.11,31-74.81,48C518.88,1033,615.95,996,661.8,951.49c-69.27,83.94-4.36,51.12,44,5.21,20.13-19.09,37.23-36.26,50.42-49.87-22.61,34.83-45,68.89-70.26,89.8-38.89,32.25-93.74,40.42-65.79,1.87-113,76.8-134.89,23.19-83.53-9.25C489.6,1007.65,469.05,1003.35,496.45,980.42Z" transform="translate(-484.1 -29.61)"/></g><path class="cls-3" d="M1086.44,402.4c8.07-89-61.41-162.21-153.94-147.32-75.9,12.21-135.9-34.87-146.17-55.88S758.2,276.81,825.4,302c-68.52-3.22-43.48,37.38-6.62,39.56C742.31,399.25,804.61,502.06,724,642.48S482.2,923,560.24,920.81C508,992,600.57,977.12,696.69,861.43c-1.1,52.31,65,14.29,127.34-39.12,176.22,22.75,262.25-39.07,258.07-163.53,42.1-63.16-49.45-127.69-59.32-179.7C1060.88,456.7,1086.44,402.4,1086.44,402.4Z" transform="translate(-484.1 -29.61)"/><g class="cls-4"><path class="cls-5" d="M724,642.48c80.57-140.42,18.27-243.22,94.74-300.91-36.86-2.18-61.9-42.78,6.62-39.56-45.78-17.17-52.08-68.39-48.2-92.67,1.64,28.69,23.55,79.38,82.19,85.25-48.74,11.07-65.49,12.18-64.52,23.78s56,16.48,56,16.48c-53.61,21.53-64.26,112-70.56,175-11.06,110.69-110.69,193.56-68,197.51,23.17,2.14,51.7-43.42,51.7-43.42-17.06,58.58,36.75,44.14,67.06-2.55-19.74,100.61,1.5,121.31,52.51,53.38s65-119.33,48-150.47c55,71.38,109.2,117.61,122.06,47.53,23.14,31.14,32,.68,25.68-34.23,14.22,26.58,20.88,54,2.76,81.19,4.18,124.46-81.85,186.29-258.07,163.53-19.19,16.43-38.72,31.38-56.54,42.72-36.31-8.19-70.11-16.33-73.14-17.74-4.86-2.26-33.88-61.75-48.4-92C673.64,719.65,701.89,681.08,724,642.48Z" transform="translate(-484.1 -29.61)"/></g><g class="cls-4"><path class="cls-5" d="M1036.27,510.8c-27-17.51-55.66-27.35-43.89-79.27,18.36,12.17,34.7,23.28,49.16,33.33a109.32,109.32,0,0,1-18.76,14.22C1024.7,489.21,1029.75,499.82,1036.27,510.8Z" transform="translate(-484.1 -29.61)"/></g><path class="cls-6" d="M686.11,761.68c30.49,5.59,101.54-38.38,103.34-20.36s-2.5,48.48,6.61,50.8S854,786,869.65,769.38a533.31,533.31,0,0,1-44.43,53.07l-1.18-.13c-62.39,53.41-128.44,91.43-127.34,39.12C600.57,977.12,508,992,560.24,920.81c-64.33,1.83,34-93.08,115.61-205.14C671.4,737,670.71,758.85,686.11,761.68Z" transform="translate(-484.1 -29.61)"/><path class="cls-7" d="M743.28,706.48c-11.63,22.27,12.3,46.77,65-7.66-28.76,146.7,50,78,94.34,26.37C824.17,850.06,756,837.8,781.53,757.68c-15.87,32.08-76.32,62.84-64.48,25.07-65.21,87.17-89.37,30.82-40.92-67.46q9.36-12.86,18.35-26C687.5,716.23,692.94,739.76,743.28,706.48Z" transform="translate(-484.1 -29.61)"/><path class="cls-7" d="M992,439.61c-4.42-19.24-1.2-24.17,39.13-25.13,40.56-1,48-15.82,55-36.37,5.79,1.93,2.25,21.25-1,27.68,0,0-24.3,50.91-62.4,73.28.19,1,.47,2,.71,3C1007.11,473.94,995.7,455.87,992,439.61Z" transform="translate(-484.1 -29.61)"/><path class="cls-2" d="M1116.24,491.43c-22.19,14.19-79.74,10.65-92.5-7.06s-8.37-44.95-8.37-44.95C1046,448.89,1086.35,484.54,1116.24,491.43Z" transform="translate(-484.1 -29.61)"/><path class="cls-8" d="M1087.75,397.36c35.45,20.94,85,84.72,77.43,112.7-6,15-49.57-18-77.6-27.49s-70-33.52-80.2-51.3C1012.22,419.83,1072,434,1087.75,397.36Z" transform="translate(-484.1 -29.61)"/><path class="cls-9" d="M1165.18,510.06a27.24,27.24,0,0,0,.55-9.92c-11.39,13.57-60.37-21.59-85.71-40.59-22-16.46-.64-54.18,14.51-57.79-2.31-1.62-4.57-3.1-6.78-4.4-15.75,36.59-75.53,22.48-80.37,33.9,10.18,17.78,52.18,41.77,80.2,51.3S1159.15,525.07,1165.18,510.06Z" transform="translate(-484.1 -29.61)"/><path class="cls-10" d="M940.8,399.43c-.18,0-.1-1.3.19-3.58a53.42,53.42,0,0,1,2.36-9.48,42,42,0,0,1,7-12.84,28.46,28.46,0,0,1,6.46-6,22.91,22.91,0,0,1,8.85-3.58,19.86,19.86,0,0,1,9.58.73,21.26,21.26,0,0,1,7.65,4.56,24.93,24.93,0,0,1,4.95,6.25,30.52,30.52,0,0,1,1.61,3.21c.45,1.06.79,2.1,1.15,3.08a40,40,0,0,1,1.67,9.68c0,2.31-.08,3.58-.26,3.59-.5.05-.47-5.13-3.17-12.65-.4-.91-.77-1.88-1.24-2.85a30.74,30.74,0,0,0-1.63-2.92,23.75,23.75,0,0,0-4.69-5.56,19.36,19.36,0,0,0-6.83-3.92,17.69,17.69,0,0,0-8.35-.58,20.93,20.93,0,0,0-7.87,3.14,27.13,27.13,0,0,0-6,5.36A44.15,44.15,0,0,0,945.09,387a87.35,87.35,0,0,0-3.1,9C941.4,398.25,941,399.46,940.8,399.43Z" transform="translate(-484.1 -29.61)"/><path class="cls-5" d="M827.25,822.22a17.7,17.7,0,0,1,2.19-2.76c1.5-1.75,3.76-4.28,6.64-7.56,5.73-6.6,14.06-16.11,23.87-28.26,4.88-6.09,10.19-12.8,15.64-20.18s11.16-15.35,16.84-24c11.37-17.18,22.89-36.8,32.22-58.65,2.38-5.44,4.43-10.93,6.39-16.37s3.62-10.88,5-16.3c.38-1.35.72-2.69,1-4l.94-4c.54-2.69,1.12-5.34,1.53-8s.79-5.28,1.15-7.88.55-5.19.67-7.75a104.61,104.61,0,0,0-1.94-28.87,63.18,63.18,0,0,0-9.68-23.05c-4.4-6.28-10-10.82-15.56-13.15a26.2,26.2,0,0,0-8.16-2,25.57,25.57,0,0,0-7.07.46,27,27,0,0,0-9.07,3.86c-1,.59-1.65,1.15-2.14,1.48s-.74.5-.77.47.17-.26.6-.67a17.59,17.59,0,0,1,2-1.71,25.42,25.42,0,0,1,9.14-4.42,26,26,0,0,1,7.38-.71,27.12,27.12,0,0,1,8.63,1.89c5.95,2.31,11.84,7,16.52,13.42a64.41,64.41,0,0,1,10.3,23.66,105.47,105.47,0,0,1,2.24,29.49c-.1,2.61-.39,5.23-.63,7.89s-.65,5.33-1.13,8-1,5.39-1.52,8.12l-.94,4.08c-.3,1.37-.65,2.74-1,4.1-1.38,5.49-3.16,11-5,16.5s-4,11-6.45,16.54c-9.43,22.05-21.08,41.77-32.63,59-5.77,8.61-11.52,16.6-17.12,23.92s-11,14-15.94,20c-10,12-18.58,21.37-24.55,27.77-3,3.18-5.39,5.6-7,7.23A17.57,17.57,0,0,1,827.25,822.22Z" transform="translate(-484.1 -29.61)"/><path class="cls-5" d="M1060.09,679.41c-.11-.25,3.36-1.55,8-5.11l.9-.67.89-.77,1.88-1.63,1.89-1.89c.32-.33.66-.65,1-1l.94-1.09c.62-.74,1.32-1.45,1.92-2.27l1.88-2.47c1.18-1.75,2.45-3.53,3.54-5.5.57-1,1.14-1.92,1.61-2.9s1-1.92,1.45-2.88c.85-1.94,1.71-3.79,2.35-5.62a80.34,80.34,0,0,0,3-9.88c.63-2.88,1.11-5.22,1.33-6.86a9.91,9.91,0,0,1,.54-2.53,9.73,9.73,0,0,1,0,2.59,56.26,56.26,0,0,1-.93,7,69.3,69.3,0,0,1-2.8,10.1c-.62,1.88-1.47,3.77-2.32,5.75-.45,1-1,1.94-1.46,2.94s-1.05,2-1.63,3c-1.11,2-2.41,3.82-3.63,5.59l-1.95,2.5c-.63.83-1.35,1.54-2,2.29l-1,1.09c-.34.35-.69.67-1,1-.68.65-1.33,1.29-2,1.88l-2,1.61-.94.75-1,.65-1.77,1.2c-.56.38-1.14.65-1.65.95a21.29,21.29,0,0,1-2.73,1.36A9.72,9.72,0,0,1,1060.09,679.41Z" transform="translate(-484.1 -29.61)"/><path class="cls-5" d="M1015.32,762a6.27,6.27,0,0,1,1.17-.9l3.47-2.36a103.73,103.73,0,0,0,11.81-9.87A91.64,91.64,0,0,0,1045.86,731c1.16-1.81,2.17-3.76,3.26-5.73.53-1,1-2,1.51-3.05l.76-1.55.7-1.6a111.89,111.89,0,0,0,5-13.57,126.64,126.64,0,0,0,3.4-14.07c.87-4.6,1.49-9.08,1.89-13.36a178.17,178.17,0,0,0,.73-22.85c-.21-6.51-.72-11.77-1.11-15.4l-.49-4.17a6.23,6.23,0,0,1-.1-1.47,6.17,6.17,0,0,1,.36,1.43c.21.94.45,2.34.74,4.15A154.63,154.63,0,0,1,1064,655.2a166,166,0,0,1-.46,23c-.37,4.32-1,8.84-1.83,13.48a123.92,123.92,0,0,1-3.41,14.21,110,110,0,0,1-5.08,13.71l-.71,1.61-.77,1.57c-.52,1-1,2.08-1.54,3.08-1.11,2-2.15,4-3.34,5.78a89.07,89.07,0,0,1-14.46,17.91,90.53,90.53,0,0,1-12.18,9.63c-1.56,1-2.79,1.68-3.62,2.16A6.14,6.14,0,0,1,1015.32,762Z" transform="translate(-484.1 -29.61)"/><path class="cls-5" d="M613.78,1010.79a4,4,0,0,1,0-1.19l0-.66c0-.24.1-.49.16-.77a11.92,11.92,0,0,1,.51-1.9,39.8,39.8,0,0,1,6.3-10.76c6.42-8.38,16.9-18.46,28.49-29.46s21.94-21.12,28.58-29.18a86.39,86.39,0,0,0,7.28-10c.8-1.23,1.32-2.23,1.7-2.9a4.09,4.09,0,0,1,.64-1,4,4,0,0,1-.41,1.11,27.53,27.53,0,0,1-1.49,3,72.63,72.63,0,0,1-7,10.3c-6.51,8.28-16.79,18.56-28.4,29.55S628,988,621.5,996.09a43.06,43.06,0,0,0-6.55,10.36A30.17,30.17,0,0,0,613.78,1010.79Z" transform="translate(-484.1 -29.61)"/><path class="cls-5" d="M517.54,1008.52a12,12,0,0,1,1.66-2.62,43,43,0,0,1,5.73-6.21,64.56,64.56,0,0,1,10.13-7.38,127.66,127.66,0,0,1,13.63-7c4.95-2.22,9.72-4.16,14-6s8.13-3.58,11.24-5.24a57.28,57.28,0,0,0,7.09-4.37c.8-.57,1.4-1.05,1.81-1.38s.65-.47.68-.44-.14.25-.5.63a17.32,17.32,0,0,1-1.67,1.58,45,45,0,0,1-7,4.78,122.42,122.42,0,0,1-11.2,5.54c-4.29,1.91-9,3.89-14,6.09a143.32,143.32,0,0,0-13.55,6.82,70.39,70.39,0,0,0-10.13,7C520.15,1004.94,517.75,1008.68,517.54,1008.52Z" transform="translate(-484.1 -29.61)"/><path class="cls-11" d="M1118,440.39c9-.9,37.27,39.6,31.67,46.87S1106.74,452.33,1118,440.39Z" transform="translate(-484.1 -29.61)"/><path class="cls-12" d="M551.59,934.61a5.81,5.81,0,0,1,.56-1.32c.4-.84,1-2.08,1.83-3.66.41-.79.84-1.68,1.36-2.63l1.82-3,2.1-3.46c.72-1.24,1.64-2.45,2.52-3.77,7.12-10.54,18.31-24.18,32.07-37.86,3.38-3.47,6.86-6.69,10.15-9.86s6.59-6.1,9.77-8.84c6.28-5.58,12.15-10.35,17.1-14.33,2.51-1.94,4.77-3.72,6.79-5.23s3.77-2.8,5.23-3.82,2.6-1.79,3.38-2.31a5.84,5.84,0,0,1,1.23-.73,5.87,5.87,0,0,1-1.07.95c-.73.58-1.82,1.43-3.23,2.5l-5.08,4-6.66,5.37c-4.87,4.06-10.67,8.89-16.88,14.51-3.15,2.76-6.34,5.8-9.69,8.88s-6.73,6.39-10.1,9.85a295.3,295.3,0,0,0-32.23,37.46c-.9,1.3-1.84,2.48-2.59,3.7l-2.17,3.39-1.9,2.95-1.45,2.56c-.87,1.54-1.56,2.73-2,3.54A5.91,5.91,0,0,1,551.59,934.61Z" transform="translate(-484.1 -29.61)"/><path class="cls-13" d="M718.63,798.67s-.24-.08-.63-.34a4.54,4.54,0,0,1-.7-.52l-.81-.89c-1.15-1.44-1.87-4.12-1.7-7.31a39.09,39.09,0,0,1,2.48-10.84,99.5,99.5,0,0,1,5.58-12.34A165,165,0,0,1,736,745.7c1.88-2.52,3.49-4.49,4.65-5.81a9.74,9.74,0,0,1,1.94-1.93,12.44,12.44,0,0,1-1.54,2.25c-1,1.41-2.52,3.45-4.29,6A216.24,216.24,0,0,0,724,767a111.37,111.37,0,0,0-5.61,12.15,41.2,41.2,0,0,0-2.68,10.48c-.27,3,.25,5.54,1.19,7l.67.91a6.19,6.19,0,0,0,.58.59C718.49,798.45,718.65,798.64,718.63,798.67Z" transform="translate(-484.1 -29.61)"/><path class="cls-13" d="M776.61,777.67a19.76,19.76,0,0,1,0-3.7l.08-2c0-.73.16-1.5.25-2.34l.34-2.69c.07-.48.11-1,.2-1.47l.31-1.53.67-3.28c.22-1.14.61-2.3.92-3.51.61-2.44,1.52-5,2.43-7.63a165.27,165.27,0,0,1,7.44-16.73c2.94-5.79,5.93-11.18,8.57-16.13s5-9.42,6.83-13.22,3.29-6.92,4.2-9.11a19.93,19.93,0,0,1,1.6-3.33,19.74,19.74,0,0,1-1.12,3.52c-.77,2.25-2.1,5.43-3.83,9.31s-4,8.42-6.6,13.39-5.54,10.4-8.46,16.16S785,744.75,783,750c-.93,2.63-1.88,5.11-2.52,7.51-.33,1.19-.74,2.33-1,3.45l-.75,3.23-.35,1.5c-.11.49-.17,1-.25,1.44l-.44,2.65c-.12.83-.3,1.6-.36,2.31l-.19,2A19.92,19.92,0,0,1,776.61,777.67Z" transform="translate(-484.1 -29.61)"/><path class="cls-12" d="M698.45,872.35s-.17-.28-.36-.85l-.35-1.07-.21-.69-.15-.8a25.94,25.94,0,0,1-.11-9.78,46.21,46.21,0,0,1,4.93-13.65,97.7,97.7,0,0,1,10-14.67c7.9-9.78,16-17.71,21.58-23.72,2.79-3,5-5.49,6.38-7.27a32.86,32.86,0,0,1,2.19-2.8s-.09.31-.38.85a23.84,23.84,0,0,1-1.4,2.26,86.15,86.15,0,0,1-6.1,7.59C729,813.93,721,822,713.18,831.66a103.43,103.43,0,0,0-9.91,14.42,47.64,47.64,0,0,0-5.08,13.24,27.92,27.92,0,0,0-.31,9.53l.09.8.15.69.22,1.09A2.58,2.58,0,0,1,698.45,872.35Z" transform="translate(-484.1 -29.61)"/><path class="cls-5" d="M741.13,721.54a2.4,2.4,0,0,1-.54-.88,9,9,0,0,1-.74-2.88A28.49,28.49,0,0,1,741.38,707c2.63-8.8,8.31-20.12,15.1-32.23S769.82,652,774.35,644.1c2.28-3.93,4.08-7.14,5.31-9.36a26.29,26.29,0,0,1,2-3.42,20,20,0,0,1-1.54,3.65c-1.09,2.3-2.77,5.58-5,9.58-4.33,8-10.74,18.83-17.53,30.91s-12.54,23.27-15.36,31.87a30.45,30.45,0,0,0-1.91,10.41A14.89,14.89,0,0,0,741.13,721.54Z" transform="translate(-484.1 -29.61)"/><path class="cls-14" d="M692.88,949c19.6-8.62-41.63,54.44-50.05,44.51C636.82,986.41,673.35,960.2,692.88,949Z" transform="translate(-484.1 -29.61)"/><path class="cls-14" d="M593.82,989.57c13.36-6.84-35-3.53-59,19.59C526.6,1017.07,580.52,998.66,593.82,989.57Z" transform="translate(-484.1 -29.61)"/><path class="cls-14" d="M889.31,666.19c-8.72,52.82-56.22,88.74-58.87,63.64C825.23,705.44,895.06,631.34,889.31,666.19Z" transform="translate(-484.1 -29.61)"/><path class="cls-15" d="M633.2,876.14c7.64,19.15-55.26,77.09-68.49,65.85S618.11,867.53,633.2,876.14Z" transform="translate(-484.1 -29.61)"/><path class="cls-15" d="M591.71,847c9.25,7.48-25.5,56.88-35.37,50.06S580.08,846.67,591.71,847Z" transform="translate(-484.1 -29.61)"/><path class="cls-15" d="M746.85,832.25c11.33,12.59-27.12,45.31-33.87,34.53S735,822.9,746.85,832.25Z" transform="translate(-484.1 -29.61)"/><path class="cls-16" d="M685.71,747.49c12.51,8.68-2,64.61-17.06,58.58S672.63,741.4,685.71,747.49Z" transform="translate(-484.1 -29.61)"/><path class="cls-16" d="M753,754c6.07,8.86-15.08,37.22-22.39,29.68S742.5,747.17,753,754Z" transform="translate(-484.1 -29.61)"/><path class="cls-14" d="M793.9,647.59c11.91,10-13.66,41.7-21,34.81S782,639.54,793.9,647.59Z" transform="translate(-484.1 -29.61)"/><path class="cls-14" d="M739.2,653.67c7.37,9.47-13.6,43.63-26,38.82S730,649.41,739.2,653.67Z" transform="translate(-484.1 -29.61)"/><path class="cls-14" d="M855.35,265.66c-8.75,9.93-70.09-13.5-60.88-29.9S858.3,255.89,855.35,265.66Z" transform="translate(-484.1 -29.61)"/><path class="cls-17" d="M776.29,309.9c-77.35-1-204-95.25-195.09-127.79s113.41,52.72,160.11,27S881.38,31,954.32,29.62s127.87,173.19,174.34,157.84,96.28-47.73,110.74-28.81-56.86,138.62-114.17,139.59-90.69-25.81-151.69-26.4S798.14,308.65,776.29,309.9Z" transform="translate(-484.1 -29.61)"/><path class="cls-18" d="M1239.4,158.65a13.57,13.57,0,0,0-1.73-1.85c-.19-.17-.39-.32-.59-.48a13.22,13.22,0,0,0-1.45-1c-.23-.14-.47-.28-.71-.41a15.1,15.1,0,0,0-1.75-.78c-.2-.07-.38-.16-.58-.23a19.13,19.13,0,0,0-2.58-.65l-.56-.07c-.74-.11-1.5-.19-2.28-.24l-.94,0c-.72,0-1.46,0-2.22,0l-.94,0q-1.49.1-3.07.32l-.22,0c-1.16.17-2.36.38-3.58.63l-.91.2c-.94.21-1.9.43-2.88.68l-1.11.29c-1,.28-2.06.57-3.11.88l-.84.25c-1.38.42-2.78.88-4.21,1.37l-.07,0c-1.39.47-2.81,1-4.24,1.51l-1,.36q-1.81.67-3.66,1.4l-.91.36c-19.49,7.66-42.42,18.85-64.6,26.18-12.36,4.08-25.32-5.28-39.06-21.19,13.93,20.43,23.7,31.83,33.91,29.52,22.39-5.08,77.92-37.27,91.72-35.65,11,2.4,1,23.62-10.11,46.61-12.26,25.47-55,59-85.33,68.26-34-5.89-79.35-16.83-142.44-18.22-101-2.22-175.72,12-209.64,24.34-71.56,30.48-196.46-107.77-160.3-95.22,12.71,4.85,38.73,16,54.09,21.28,19.05,6.5,53.42,18.29,65.49,9.75,2-1.44,4.08-3,6-4.59-31.68,8.51-81.2-18.57-115.15-31.4h0l-1.55-.57-1.85-.68q-2-.71-3.85-1.33l-1.44-.46-2.62-.81-1.44-.41c-1-.29-2.07-.56-3.06-.79l-.71-.17c-1.13-.25-2.21-.46-3.27-.62l-1.05-.15c-.79-.11-1.56-.19-2.3-.25l-.91-.06a23.84,23.84,0,0,0-2.78,0c-.17,0-.33,0-.5.07a16.13,16.13,0,0,0-2,.34l-.71.19a11.41,11.41,0,0,0-1.72.68c-.13.07-.29.12-.42.2a8.79,8.79,0,0,0-1.73,1.29c-.14.13-.25.28-.38.42a8.79,8.79,0,0,0-1,1.38c-.12.19-.24.38-.34.57a11.39,11.39,0,0,0-.93,2.31,12.33,12.33,0,0,0-.36,2.11c0,.18,0,.36,0,.54C579.48,208,633.62,255.65,692.18,285h0l0,0q2.64,1.33,5.3,2.6l.18.09q8,3.84,16.07,7.16l.56.23c1.7.69,3.4,1.37,5.1,2l.12,0q5.27,2,10.48,3.78l.86.29q2.15.71,4.28,1.37l.92.28q5,1.53,10,2.75l1,.24c1.28.31,2.55.6,3.82.88l1.3.28c1.28.27,2.55.52,3.81.74l.94.18c1.56.28,3.11.53,4.64.74l.85.11q1.84.25,3.66.44l1.42.14q1.6.15,3.17.26l1.33.09c1.45.08,2.89.13,4.3.15,21.85-1.25,136.26-38.66,197.25-38.06s94.38,27.37,151.69,26.4c.92,0,1.85-.07,2.78-.14l.93-.1c.62-.06,1.25-.13,1.87-.22.37-.05.74-.13,1.11-.19.57-.09,1.13-.19,1.7-.3l1.18-.27c.55-.13,1.1-.24,1.65-.39l1.21-.34,1.64-.48,1.22-.41c.54-.19,1.09-.37,1.64-.57l1.22-.47c.55-.22,1.1-.44,1.65-.67l1.2-.53c.56-.25,1.12-.5,1.68-.77l1.18-.57c.57-.28,1.14-.57,1.71-.86l1.15-.61,1.75-1,1.11-.64c.6-.35,1.19-.71,1.79-1.08l1.07-.66,1.86-1.2,1-.65c.65-.44,1.31-.89,2-1.36l.87-.61c.7-.5,1.4-1,2.1-1.54l.73-.54c.78-.59,1.55-1.19,2.32-1.8l.5-.39q1.39-1.11,2.78-2.27h0C1214.26,241,1250,172.57,1239.4,158.65Z" transform="translate(-484.1 -29.61)"/><path class="cls-19" d="M989.45,148c14.16-30.91,4.93-55.73-32.92-56.95-47.28-1.52-54,30.72-36.4,52.93,1.45,5.17-15.55,12.46-3.79,21.37s22.92-11.69,22.89-4.32-4.51,18.42,1.38,19.92,11.1-7.32,11.1-7.32c-.25,8.52,9.28,13.34,11.89,2.64,9.55,7.42,16.3,1.59,8.84-17.29C996,174.57,1004.16,156.91,989.45,148Zm-65.36-9.16c-5.86-9.62,14.39-26.61,20.94-9.24S931.89,152.87,924.09,138.82ZM962.83,160c-3.69,1.46-4-3.34-6.24-5.19s-4.46,7.35-8.13,3.28c-3.67-3.34,2.64-12.53,6.7-14S966.53,158.57,962.83,160Zm21.12-19.82c-2.24,6.63-6.69,11.4-17,4.35s-7.81-14.73-2.11-21C974.32,113,986.2,133.59,983.95,140.21Z" transform="translate(-484.1 -29.61)"/><path class="cls-19" d="M919.3,201.11c-6.35-.63-10.22,6.83-14.52-.35s9.8-6.12,9.42-11-7.22-8.51-1.47-11.61,15.13,5.61,12.47,10.94c-4.18,8.36,65.64,42.38,68,34.07,1.22-4.39.13-6.34,3.26-6.64s13.7,5.3,10.66,9.32-7.38,1.88-9.11,6-1.87,14.52-7.51,13.29-3.09-8.79-8.43-13S921.33,201.12,919.3,201.11Z" transform="translate(-484.1 -29.61)"/><path class="cls-19" d="M980.19,203.44c11.89-5.37,15.58,6.5,20-.6s-9.1-7.18-8.62-12,1.89-8.49-4.46-10.08c-5.74-1.43-8.07,5.83-4.84,10.83s-16.67,9-29.13,16.33c-8.74,5.15-40.78,19.17-41.21,14.63s-4.21-4-7.34-4.35-8.73,3-5.77,7.14,6.86,1.06,8.5,5.23-1.28,12.52,4.4,11.42,2.65-6.87,8.07-10.91S971.2,209.95,980.19,203.44Z" transform="translate(-484.1 -29.61)"/><path class="cls-20" d="M781.14,292.16c-1.83,15.59,6.82,61.9,13.53,61.31s123.57-36.71,197.5-49.22c22.94,5.72,94.71,23.66,94.71,23.66,9.28-16.17,5-34.61,1.41-41.38S962.12,249.52,781.14,292.16Z" transform="translate(-484.1 -29.61)"/><path class="cls-21" d="M911.3,293.78c6.46,1,33.37,9.13,54.18,15.57,9.13-1.91,17.95-3.62,26.23-5C970.15,298.86,935.83,293.76,911.3,293.78Z" transform="translate(-484.1 -29.61)"/><path class="cls-21" d="M817.85,284.33q-17.92,3.43-36.7,7.83c-1.83,15.59,6.82,61.9,13.53,61.31,2.25-.2,17-4.42,38.25-10.38C827.67,330.48,819.43,294.88,817.85,284.33Z" transform="translate(-484.1 -29.61)"/><path class="cls-21" d="M1058.45,277.39c.32,11.88.53,29.92-.57,43.26l29,7.25c9.28-16.17,5-34.61,1.41-41.38C1087.28,284.61,1076.89,280.86,1058.45,277.39Z" transform="translate(-484.1 -29.61)"/><path class="cls-22" d="M987.77,145.22c14.16-30.91,4.93-55.73-32.92-57-47.28-1.52-54,30.72-36.4,52.93,1.45,5.17-15.55,12.47-3.79,21.37s22.92-11.7,22.89-4.32-4.52,18.42,1.37,19.92,11.1-7.32,11.1-7.32c-.25,8.53,9.28,13.34,11.89,2.64,9.55,7.42,16.3,1.59,8.83-17.29C994.28,171.81,1002.48,154.15,987.77,145.22Zm-65.36-9.16c-5.86-9.62,14.39-26.61,20.95-9.24S930.21,150.11,922.41,136.06Zm38.75,21.21c-3.7,1.45-4-3.34-6.25-5.2s-4.46,7.35-8.13,3.28c-3.67-3.34,2.64-12.53,6.7-14S964.86,155.81,961.16,157.27Zm21.11-19.82c-2.24,6.63-6.69,11.4-17,4.35s-7.81-14.73-2.12-21C972.64,110.28,984.52,130.83,982.28,137.45Z" transform="translate(-484.1 -29.61)"/><path class="cls-22" d="M917.63,198.34c-6.35-.63-10.22,6.83-14.52-.36s9.81-6.11,9.42-11-7.23-8.51-1.47-11.62,15.13,5.62,12.47,10.94c-4.18,8.36,65.64,42.38,68,34.07,1.22-4.39.13-6.34,3.26-6.64s13.69,5.3,10.65,9.32-7.38,1.88-9.1,6-1.87,14.52-7.51,13.29-3.1-8.79-8.43-12.95S919.65,198.35,917.63,198.34Z" transform="translate(-484.1 -29.61)"/><path class="cls-22" d="M978.51,200.68c11.89-5.37,15.58,6.49,20-.6s-9.11-7.19-8.62-12,1.89-8.48-4.46-10.07c-5.74-1.43-8.07,5.83-4.84,10.83s-16.67,9-29.13,16.34c-8.74,5.14-40.79,19.17-41.21,14.63s-4.21-4-7.34-4.35-8.73,3.05-5.77,7.14,6.86,1.06,8.5,5.22-1.28,12.52,4.39,11.42,2.65-6.87,8.07-10.91S969.52,207.18,978.51,200.68Z" transform="translate(-484.1 -29.61)"/><path class="cls-20" d="M1233.85,175c-15.09-6.31-39-.39-62.35,15.44-27.24,18.45-47.12,29.17-62,25.6-10.16-2.45-18.8-11.31-28.87-29.64C1031.48,97,993.51,55.44,957.54,51.76c-38.82-4-73,36.13-116.42,86.91C828.38,153.57,815.22,169,800.6,185c-34.76,38-66,53.09-95.61,46-10.16-2.42-25.14-7.71-41-13.3-43.11-15.22-69.84-23.87-77.25-15.64q1.85,3,4.2,6.12a2.56,2.56,0,0,1,.21-2.13c5.27-5.9,44.74,8,70.87,17.26,16,5.65,31.12,11,41.59,13.48a67.6,67.6,0,0,0,14.21,1.84c27.52.6,56.19-15.76,87.17-49.67,14.68-16.06,27.88-31.52,40.65-46.46C889.53,91.15,921.22,54,956.93,57.67c33.82,3.46,70.38,44.05,118.52,131.6,11,19.94,20.74,29.68,32.69,32.56,17.06,4.1,37.38-6.59,66.7-26.46,26-17.61,46.8-19,56.72-14.87a15.6,15.6,0,0,1,5.65,3.88c.78-2.15,1.45-4.23,2-6.2A22.9,22.9,0,0,0,1233.85,175Z" transform="translate(-484.1 -29.61)"/><path class="cls-23" d="M1098.55,288a3.17,3.17,0,0,1-.89-.17c-.58-.15-1.44-.38-2.56-.69-2.25-.63-5.55-1.59-9.79-2.84l-7.13-1.82c-2.61-.64-5.43-1.44-8.5-2.11l-9.83-2.12-2.65-.57-2.74-.49-5.69-1a475.83,475.83,0,0,0-55.14-6.3,600.57,600.57,0,0,0-68,0,782.3,782.3,0,0,0-122.35,16.67c-15.45,3.4-27.86,6.6-36.35,9.07-2.12.63-4,1.16-5.63,1.69L759,298l-1.85.63c-1.11.35-1.93.68-2.5.88a3.18,3.18,0,0,1-.87.26,3.09,3.09,0,0,1,.79-.44c.54-.27,1.35-.65,2.44-1.07l1.82-.72,2.23-.79c1.61-.59,3.48-1.18,5.59-1.87,8.45-2.7,20.83-6.11,36.27-9.69a734.56,734.56,0,0,1,122.55-17.28,578.35,578.35,0,0,1,68.2.14,452.77,452.77,0,0,1,55.29,6.75l5.7,1.1,2.74.53,2.65.61,9.83,2.28c3.07.72,5.87,1.58,8.48,2.27s5,1.36,7.11,2c4.22,1.37,7.49,2.45,9.7,3.2,1.1.38,1.94.67,2.5.88A3.1,3.1,0,0,1,1098.55,288Z" transform="translate(-484.1 -29.61)"/><path class="cls-24" d="M900.82,60.18c6.83,5.11,38.59-18,33.7-21.08S899.93,55.7,900.82,60.18Z" transform="translate(-484.1 -29.61)"/><path class="cls-24" d="M873.52,83.89c2.44,2,23-10.41,19.17-14.46S873.12,79.42,873.52,83.89Z" transform="translate(-484.1 -29.61)"/><path class="cls-24" d="M1185,174.69c1.59,3.57,31.72-4.7,30-8.83S1184.57,168.35,1185,174.69Z" transform="translate(-484.1 -29.61)"/></svg>