<svg id="Layer_1" data-name="Layer 1" xmlns="http://www.w3.org/2000/svg" viewBox="0 0 771.72 1055.25"><defs><style>.cls-1{fill:#a8a8a8;}.cls-2{fill:gray;}.cls-3{fill:#666;}.cls-4{fill:#cfcfcf;}.cls-5{fill:#4d4d4d;}.cls-6{fill:#ffdc7a;}.cls-7{fill:#ccb062;}</style></defs><title>anchor</title><path class="cls-1" d="M996.94,194.66s4.26,457.61,10.66,496S1031,815,1107.79,810.73,1222.91,712,1222.91,712l-49-2.49s53.29-62,81-160.07c0,0,85.27,83,85.27,213.09l-53.29-32s-25.58,86.31-89.54,137.48S947.9,982,947.9,1050.21h0c0-68.22-181.2-131.12-245.16-182.28s-89.54-138-89.54-138l-44.77,32.24c0-130,76.75-213.05,76.75-213.05,27.71,98.07,81,160,81,160l-49,2.17S715.53,805,792.28,809.29s93.8-80.27,100.2-118.64,10.66-496,10.66-496Z" transform="translate(-568.44 -12)"/><path class="cls-2" d="M996.94,194.66s4.26,457.61,10.66,496S1031,815,1107.79,810.73,1222.91,712,1222.91,712l-49-2.49s53.29-62,81-160.07c0,0,85.27,83,85.27,213.09l-53.29-32s-25.58,86.31-89.54,137.48S947.9,982,947.9,1050.21h0c0-68.22-181.2-131.12-245.16-182.28s-89.54-138-89.54-138l-44.77,32.24c0-130,76.75-213.05,76.75-213.05,27.71,98.07,81,160,81,160l-49,2.17S715.53,805,792.28,809.29s93.8-80.27,100.2-118.64,10.66-496,10.66-496Z" transform="translate(-568.44 -12)"/><path class="cls-3" d="M901.35,921.54a65.46,65.46,0,0,0-7.17-6.35C853,882.5,754.67,879.66,699.24,812.86S638,686.37,638,686.37l-31.33,22.74c-7.1-73.91,38.52-160,38.52-160s-76.76,83-76.76,213.05l44.76-32.24s25.58,86.87,89.53,138c43.41,34.73,140.74,74.87,198.82,118.41q3.16,2.36,6.16,4.75c1.2.95,2.38,1.9,3.54,2.85,1.92,1.58,3.76,3.17,5.55,4.76q2.13,1.89,4.14,3.78c1.71,1.61,3.36,3.22,4.93,4.82,1.1,1.14,2.14,2.28,3.17,3.41s2.14,2.44,3.16,3.66,2,2.35,2.89,3.53c1.52,2,2.9,4,4.18,6,.8,1.28,1.49,2.56,2.19,3.84.58,1.08,1.14,2.15,1.64,3.23.63,1.32,1.23,2.65,1.74,4,1.92,5.05,4,10.13,4,15.25,0-4.74-.74-9.45,3.58-14.13V510.85S934.77,900.32,901.35,921.54Z" transform="translate(-568.44 -12)"/><path class="cls-4" d="M974,798.64V952.13s62.18-41.21,136.08-62.53S1257,764.54,1275.5,709.11l48.59,27s-24-102.33-49.61-142.13c0,0,16.91,173.67-190,277.14C1007.71,909.5,991.32,899.55,974,798.64Z" transform="translate(-568.44 -12)"/><path class="cls-5" d="M954.78,194.66H903.13s-4.26,457.6-10.66,496-23.45,123.27-100.2,119a95.34,95.34,0,0,1-21.55-3.9c.49.27,1,.49,1.48.75-1-.27-1.92-.58-2.86-.87,39.56,26.89,168.06,86.48,174.82-45.34C952,608.13,954.43,250.87,954.78,194.66Z" transform="translate(-568.44 -12)"/><path class="cls-2" d="M950.57,12a98.06,98.06,0,1,0,98.07,98.06A98.06,98.06,0,0,0,950.57,12Zm0,149.23a51.16,51.16,0,1,1,51.17-51.17A51.16,51.16,0,0,1,950.57,161.23Z" transform="translate(-568.44 -12)"/><path class="cls-5" d="M950,39.71c-58.16,0-50.62,72.52-50.62,70.35a51.17,51.17,0,0,1,102.33,0C1001.73,112.23,1008.18,39.71,950,39.71Z" transform="translate(-568.44 -12)"/><polygon class="cls-2" points="591.05 325.33 181.74 325.33 147.63 256.16 625.16 256.16 591.05 325.33"/><polygon class="cls-5" points="168.95 299.39 181.74 325.33 591.05 325.33 603.84 299.39 168.95 299.39"/><path class="cls-6" d="M901.13,363.75c.23-17.15.45-33.71.64-49.37C877,298.53,858.9,282.57,858.9,267.82c0-67.54,86-103.54,86.91-103.9a21.32,21.32,0,0,0-16-39.51c-4.63,1.87-113.52,47-113.52,143.41C816.26,307.77,853.65,336.57,901.13,363.75Z" transform="translate(-568.44 -12)"/><path class="cls-6" d="M843.49,1025c-.77-.14-68.42-13.72-76.49-117.11-15.83-8.64-30.6-17-43.34-25.2-2,161.61,111.08,184.05,112.28,184.28a22.07,22.07,0,0,0,3.8.33,21.32,21.32,0,0,0,3.75-42.3Z" transform="translate(-568.44 -12)"/><path class="cls-6" d="M999,368.26c.22,16.16.46,32.77.72,49.53,42,25,76.63,52.78,76.63,84.53,0,37.53-69.67,81.58-137,124.18-74.76,47.27-157.18,99.41-194.58,167.39a102.09,102.09,0,0,0,40.79,14.77c34-55.92,108.71-103.22,176.57-146.13,84.19-53.22,156.9-99.19,156.9-160.21C1119,442.61,1060.67,402.39,999,368.26Z" transform="translate(-568.44 -12)"/><path class="cls-4" d="M880.22,122.86s0-93.8,72.48-93.8,76.75,85.27,76.75,85.27S1038,18.4,950.57,18.4,880.22,122.86,880.22,122.86Z" transform="translate(-568.44 -12)"/><path class="cls-4" d="M717.36,709.43l8.83-.39s-53.3-61.89-81-160C645.18,549.09,635.12,678.8,717.36,709.43Z" transform="translate(-568.44 -12)"/><path class="cls-7" d="M901.78,314.38c-6.52-4.18-12.54-8.37-17.94-12.54l-11.24,44.31c8.9,6,18.47,11.84,28.54,17.61C901.36,346.6,901.58,330,901.78,314.38Z" transform="translate(-568.44 -12)"/><path class="cls-7" d="M999.72,417.79a384.8,384.8,0,0,1,33.09,21.84L1031,387c-10.37-6.48-21.14-12.71-32-18.73C999.23,384.42,999.47,401,999.72,417.79Z" transform="translate(-568.44 -12)"/><path class="cls-7" d="M767,907.84c-15.83-8.64-30.6-17-43.34-25.2a302.48,302.48,0,0,0,1.63,35.64l44.14,9.29C768.38,921.38,767.54,914.84,767,907.84Z" transform="translate(-568.44 -12)"/><path class="cls-7" d="M765.76,762.8a223,223,0,0,0-21,31.09,102.09,102.09,0,0,0,40.79,14.77A208.07,208.07,0,0,1,810.1,776.5Z" transform="translate(-568.44 -12)"/><path class="cls-7" d="M916.2,157.64c-3.61-9.93-13.14-13.33-21.5-14.33-4,2.58-8.07,5.41-12.27,8.53,3.94-.47,21.86-2,25.76,8.72,2.8,7.71,2.51,17.08,1.68,24.13,3.09-2.24,6.12-4.29,9.05-6.17C919.16,171.84,918.63,164.33,916.2,157.64Z" transform="translate(-568.44 -12)"/><path class="cls-7" d="M854.82,176.34q-4,4.32-7.84,9c5.56-1.28,13.09-1.27,19.57,5.21,7.07,7.07,9.41,18,10.09,26.35,2.31-3.16,4.76-6.19,7.33-9.07-1.6-8-4.87-16.78-11.39-23.31A27.43,27.43,0,0,0,854.82,176.34Z" transform="translate(-568.44 -12)"/><path class="cls-7" d="M822.36,229.66c-1.23,3.8-2.34,7.68-3.23,11.69,4.21-3.34,12.73-8.13,25.43-5.59A28.63,28.63,0,0,1,862,246.12a84.05,84.05,0,0,1,3.19-9.12,37.41,37.41,0,0,0-19-9.6A39.36,39.36,0,0,0,822.36,229.66Z" transform="translate(-568.44 -12)"/><path class="cls-7" d="M839.48,270.28c-10.34,4.35-17,9.95-20.16,16.55a70,70,0,0,0,5.75,13.08l1.33-.73a10.13,10.13,0,0,1-.14-7.39c1.8-5.13,7.51-9.85,16.53-13.65,7.67-3.23,13.76-4.15,17.69-3a21.33,21.33,0,0,1-1.58-7.38c0-.5,0-1,.06-1.48C853.59,265.87,847.15,267.05,839.48,270.28Z" transform="translate(-568.44 -12)"/><path class="cls-7" d="M1048,418.65a31.6,31.6,0,0,1,12.62-11.35c-2.48-1.9-5-3.79-7.55-5.64A40.72,40.72,0,0,0,1040.78,414c-6.35,9.88-5.51,20.7-2.53,29.79a167.6,167.6,0,0,1,17.39,15.7l.53-.44C1056,458.85,1037,435.71,1048,418.65Z" transform="translate(-568.44 -12)"/><path class="cls-7" d="M1076.25,447.09c8.26-4.49,18.33-1.78,24.75.89a135.54,135.54,0,0,0-8.76-11.37c-6.37-1-13.48-.61-20.08,3-8.93,4.87-13,13.8-14.93,21.63a99.18,99.18,0,0,1,7.21,8.79C1065.08,463.13,1067.47,451.88,1076.25,447.09Z" transform="translate(-568.44 -12)"/><path class="cls-7" d="M1118.65,506.79c.09-1.49.33-3,.33-4.46a88.61,88.61,0,0,0-.84-11.84c-4.89-5.48-11.26-9.66-19.51-10.18a36.55,36.55,0,0,0-24.91,7.15,47.75,47.75,0,0,1,2.24,9.4,29.14,29.14,0,0,1,22.14-8C1108,489.44,1114.6,498.32,1118.65,506.79Z" transform="translate(-568.44 -12)"/><path class="cls-7" d="M1087.49,526.22a35.08,35.08,0,0,0-17.19-3.78,79,79,0,0,1-6.07,9.33,27,27,0,0,1,19.45,2.07c7,3.5,10.47,15.29,12.08,26.68q3.76-4.71,7-9.5C1100.28,540.51,1095.77,530.36,1087.49,526.22Z" transform="translate(-568.44 -12)"/><path class="cls-7" d="M1031.74,563.57c-2.6,2.1-5.26,4.2-8,6.3,5.86,1.58,13,4.86,16.9,12,5.52,10.12,4.31,21.11,3.27,26.27q4.8-3.57,9.37-7.14a45,45,0,0,0-5.16-23.22C1044.11,570.42,1037.81,566.12,1031.74,563.57Z" transform="translate(-568.44 -12)"/><path class="cls-7" d="M1007.91,609.69A28,28,0,0,0,992,592.46q-4.48,3-9.06,6c3.85.7,13.4,3.44,16.89,13.89,2.82,8.47,1.6,18.8.11,26,3.25-2.11,6.49-4.22,9.66-6.32C1010.36,625,1010.32,616.94,1007.91,609.69Z" transform="translate(-568.44 -12)"/><path class="cls-7" d="M962.05,636.28c-3.14-8.91-7.74-13.82-12-16.55l-8.65,5.48c3.15.74,9,3.49,12.65,13.91,3.62,10.24,1.91,21.46.13,28.45l7.94-5,1.92-1.21C965,653.92,965.12,645,962.05,636.28Z" transform="translate(-568.44 -12)"/><path class="cls-7" d="M919.39,662.84a26.42,26.42,0,0,0-13.45-15.09q-4.65,3-9.29,6c4.47.58,11.35,3,14.76,12.08,4.18,11.13.6,24.16-1.62,30.34q5.39-3.58,10.82-7.12C922.15,681.43,922.76,671.84,919.39,662.84Z" transform="translate(-568.44 -12)"/><path class="cls-7" d="M852.79,683.74q-5,3.63-10,7.33c8.78.43,21.51,2.63,24.82,7.6,3.19,4.78,5.58,14.27,7,21.92,2.46-1.8,5-3.58,7.45-5.36-1.49-7.38-3.85-16-7.36-21.28C870.72,688,861,685.12,852.79,683.74Z" transform="translate(-568.44 -12)"/><path class="cls-7" d="M811,716.55c-3.09,2.66-6.16,5.34-9.14,8.05,7.47-.08,17.35.93,22.06,5.64,5.31,5.32,6.92,17.41,7.24,25.42,2.65-2.4,5.3-4.8,8-7.16-.93-8.24-3.32-18.36-9.26-24.29C825.12,719.4,817.83,717.37,811,716.55Z" transform="translate(-568.44 -12)"/><path class="cls-7" d="M754.44,939.35c6.23,0,13,2.12,18.47,4.41-.84-3.2-1.62-6.5-2.32-10a52.33,52.33,0,0,0-16.14-3c-10.45,0-19.66,6.9-25.31,12.34q1.07,5.1,2.31,9.93C735.63,948.16,745.06,939.35,754.44,939.35Z" transform="translate(-568.44 -12)"/><path class="cls-7" d="M762.93,978.79a58.58,58.58,0,0,1,23.8-.51c-1.65-2.89-3.26-5.94-4.78-9.2a61,61,0,0,0-21.09,1.29c-9.46,2.36-14.48,9.82-17.18,17q2.79,5.86,5.83,11.17C750.44,992.17,753.39,981.17,762.93,978.79Z" transform="translate(-568.44 -12)"/><path class="cls-7" d="M789.52,1012.37c5.85-3.19,13.86-4.94,20-5.89A101.54,101.54,0,0,1,802,999.2a63.27,63.27,0,0,0-16.57,5.69c-8.74,4.77-12.41,15.8-13.94,23.39,2.5,2.62,5,5.11,7.52,7.41C779.47,1029.88,782,1016.48,789.52,1012.37Z" transform="translate(-568.44 -12)"/><path class="cls-7" d="M846.89,1025.93a21.39,21.39,0,0,0-3.4-1,54.16,54.16,0,0,1-9.06-2.93,40.14,40.14,0,0,0-13,10.66,59.3,59.3,0,0,0-11.18,24.59c2.79,1.41,5.45,2.66,7.91,3.71a50.62,50.62,0,0,1,10-23.11C833,1031.55,840.7,1027.95,846.89,1025.93Z" transform="translate(-568.44 -12)"/></svg>