<?xml version="1.0" encoding="UTF-8" standalone="no"?>
<svg
   xmlns:dc="http://purl.org/dc/elements/1.1/"
   xmlns:cc="http://creativecommons.org/ns#"
   xmlns:rdf="http://www.w3.org/1999/02/22-rdf-syntax-ns#"
   xmlns:svg="http://www.w3.org/2000/svg"
   xmlns="http://www.w3.org/2000/svg"
   id="svg717"
   version="1.1"
   viewBox="0 0 160.95462 40.327938"
   height="40.327938mm"
   width="160.95462mm">
  <defs
     id="defs711" />
  <metadata
     id="metadata714">
    <rdf:RDF>
      <cc:Work
         rdf:about="">
        <dc:format>image/svg+xml</dc:format>
        <dc:type
           rdf:resource="http://purl.org/dc/dcmitype/StillImage" />
        <dc:title></dc:title>
      </cc:Work>
    </rdf:RDF>
  </metadata>
  <g
     transform="translate(127.34561,-132.1168)"
     id="layer1">
    <g
       transform="matrix(0,-0.35277777,-0.35277777,0,-124.17061,133.31113)"
       id="g592">
      <path
         id="path594"
         style="fill:#a16d0b;fill-opacity:1;fill-rule:nonzero;stroke:none"
         d="m 0,0 h -106 c -4.514,0 -4.514,-7 0,-7 H 0 c 4.514,0 4.514,7 0,7" />
    </g>
    <g
       transform="matrix(0,-0.35277777,-0.35277777,0,-117.82061,161.53335)"
       id="g596">
      <path
         id="path598"
         style="fill:#2d2824;fill-opacity:1;fill-rule:nonzero;stroke:none"
         d="m 0,0 c 0,-3.866 -3.134,-7 -7,-7 -3.866,0 -7,3.134 -7,7 v 20 c 0,3.866 3.134,7 7,7 3.866,0 7,-3.134 7,-7 z" />
    </g>
    <g
       transform="matrix(0,-0.35277777,-0.35277777,0,-117.82061,137.54447)"
       id="g600">
      <path
         id="path602"
         style="fill:#2d2824;fill-opacity:1;fill-rule:nonzero;stroke:none"
         d="m 0,0 c 0,-3.866 -3.134,-7 -7,-7 -3.866,0 -7,3.134 -7,7 v 20 c 0,3.866 3.134,7 7,7 3.866,0 7,-3.134 7,-7 z" />
    </g>
    <g
       transform="matrix(0,-0.42307326,-1.0118759,0,-118.17339,172.44474)"
       id="g604">
      <path
         id="path606"
         style="fill:#2d2824;fill-opacity:1;fill-rule:nonzero;stroke:none"
         d="m 0,0 h 95 v -142.452 l -17,38.679 -4,-29.246 -11,25.472 -13,-42.454 -12,46.228 -18,-33.019 -9,32.075 -7,-29.245 z" />
    </g>
    <g
       transform="matrix(0,-0.6190019,-0.48474651,0,-112.46278,162.79527)"
       id="g620">
      <path
         id="path622"
         style="fill:#fafafa;fill-opacity:1;fill-rule:nonzero;stroke:none"
         d="m 0,0 c -5.276,-0.951 -4.498,-5.003 -2.189,-7.981 -1.497,-0.183 -3.026,-1.246 -3.662,-2.882 -1.222,-4.698 6.006,-8.477 8.427,-4.17 L 2.34,-14.19 32.738,-30.712 c -1.445,-4.017 -2.204,-12.222 5.093,-10.817 5.274,0.95 4.497,5.003 2.189,7.981 1.496,0.182 3.025,1.245 3.661,2.881 1.223,4.699 -6.006,8.478 -8.427,4.169 l 0.137,-0.486 -30.211,16.42 C 6.564,-6.468 7.146,1.376 0,0" />
    </g>
    <g
       transform="matrix(0,-0.6190019,-0.48474651,0,-105.55703,134.1743)"
       id="g624">
      <path
         id="path626"
         style="fill:#fafafa;fill-opacity:1;fill-rule:nonzero;stroke:none"
         d="m 0,0 c 1.717,5.078 -2.206,6.355 -5.928,5.775 0.563,1.398 0.372,3.251 -0.753,4.599 -3.521,3.341 -10.324,-1.16 -7.724,-5.362 l 0.851,-0.2 -29.158,-18.622 c -2.817,3.206 -9.634,7.838 -11.932,0.772 -1.717,-5.078 2.206,-6.355 5.929,-5.775 -0.563,-1.398 -0.373,-3.25 0.753,-4.598 3.521,-3.341 10.324,1.16 7.723,5.361 l -0.493,0.116 28.98,18.507 C -8.835,-2.619 -2.25,-6.92 0,0" />
    </g>
  </g>
</svg>
